<svg width="46" height="41" viewBox="0 0 46 41" fill="none" xmlns="http://www.w3.org/2000/svg">
<path id="Arrow 1" d="M26 3C26 1.34315 24.6569 0 23 0C21.3431 0 20 1.34315 20 3H26ZM20.8787 40.1213C22.0503 41.2929 23.9497 41.2929 25.1213 40.1213L44.2132 21.0294C45.3848 19.8579 45.3848 17.9584 44.2132 16.7868C43.0416 15.6152 41.1421 15.6152 39.9706 16.7868L23 33.7574L6.02944 16.7868C4.85786 15.6152 2.95837 15.6152 1.7868 16.7868C0.615223 17.9584 0.615223 19.8579 1.7868 21.0294L20.8787 40.1213ZM20 3L20 38H26L26 3H20Z" fill="white"/>
</svg>
